<svg xmlns="http://www.w3.org/2000/svg" viewBox="0 0 800 500" font-family="JetBrains Mono, monospace"><defs><pattern id="g" width="40" height="40" patternUnits="userSpaceOnUse"><path d="M40 0H0V40" fill="none" stroke="#1a2029" stroke-width="1"/></pattern></defs><rect width="800" height="500" fill="#0d1116"/><rect width="800" height="500" fill="url(#g)"/>
<defs><linearGradient id="s" x1="0" y1="0" x2="0" y2="1"><stop offset="0" stop-color="#e53935"/><stop offset=".3" stop-color="#fdd835"/><stop offset=".6" stop-color="#43a047"/><stop offset="1" stop-color="#1e88e5"/></linearGradient></defs>
<path d="M300 420 L330 140 Q 335 110 365 110 L 395 110 Q 420 112 415 140 L 385 420 Z" fill="url(#s)" opacity=".9"/>
<rect x="270" y="400" width="140" height="44" rx="10" fill="#1e88e5" stroke="#e6e9ee" stroke-width="1.5"/>
<circle cx="372" cy="140" r="16" fill="#0d1116" stroke="#e6e9ee" stroke-width="2"/>
<path d="M300 420 L330 140 Q 335 110 365 110 L 395 110 Q 420 112 415 140 L 385 420 Z" fill="none" stroke="#e6e9ee" stroke-width="1.5"/>
<g stroke="#2a313b" stroke-width="1"><line x1="300" y1="160" x2="420" y2="160"/>
<line x1="300" y1="200" x2="420" y2="200"/>
<line x1="300" y1="240" x2="420" y2="240"/>
<line x1="300" y1="280" x2="420" y2="280"/>
<line x1="300" y1="320" x2="420" y2="320"/>
<line x1="300" y1="360" x2="420" y2="360"/>
<line x1="300" y1="400" x2="420" y2="400"/></g>
<g stroke="#ff8a3d" stroke-width="3" fill="#ff8a3d"><line x1="340" y1="330" x2="340" y2="388"/><path d="M332 380 L340 396 L348 380 Z"/><line x1="365" y1="330" x2="365" y2="388"/><path d="M357 380 L365 396 L373 380 Z"/></g>
<text x="300" y="320" font-size="14" fill="#ff8a3d">F</text>
<g transform="translate(560 140)"><rect width="22" height="220" fill="url(#s)"/><g font-size="12" fill="#c4cad3"><text x="32" y="12">max</text><text x="32" y="220">min</text><text x="-20" y="-16">VON MISES σ</text></g></g>
<text x="220" y="80" font-size="13" fill="#c4cad3">PEDAL — STATIC STRUCTURAL</text>
<g fill="#8b95a3"><path d="M352 140 h40" stroke="#8b95a3" stroke-width="3"/></g>
<text x="24" y="476" font-size="12" fill="#5b6574">PLACEHOLDER — replace with project photo / render</text></svg>
