<svg xmlns="http://www.w3.org/2000/svg" viewBox="0 0 800 500" font-family="JetBrains Mono, monospace"><defs><pattern id="g" width="40" height="40" patternUnits="userSpaceOnUse"><path d="M40 0H0V40" fill="none" stroke="#1a2029" stroke-width="1"/></pattern></defs><rect width="800" height="500" fill="#0d1116"/><rect width="800" height="500" fill="url(#g)"/>
<g transform="translate(60 120) skewX(-18)">
<rect x="80" y="0" width="58" height="66" fill="#13233a" stroke="#4fc3f7" stroke-width="1.5"/>
<rect x="142" y="0" width="58" height="66" fill="#13233a" stroke="#4fc3f7" stroke-width="1.5"/>
<rect x="204" y="0" width="58" height="66" fill="#13233a" stroke="#4fc3f7" stroke-width="1.5"/>
<rect x="266" y="0" width="58" height="66" fill="#13233a" stroke="#4fc3f7" stroke-width="1.5"/>
<rect x="80" y="70" width="58" height="66" fill="#13233a" stroke="#4fc3f7" stroke-width="1.5"/>
<rect x="142" y="70" width="58" height="66" fill="#13233a" stroke="#4fc3f7" stroke-width="1.5"/>
<rect x="204" y="70" width="58" height="66" fill="#13233a" stroke="#4fc3f7" stroke-width="1.5"/>
<rect x="266" y="70" width="58" height="66" fill="#13233a" stroke="#4fc3f7" stroke-width="1.5"/>
<rect x="80" y="140" width="58" height="66" fill="#13233a" stroke="#4fc3f7" stroke-width="1.5"/>
<rect x="142" y="140" width="58" height="66" fill="#13233a" stroke="#4fc3f7" stroke-width="1.5"/>
<rect x="204" y="140" width="58" height="66" fill="#13233a" stroke="#4fc3f7" stroke-width="1.5"/>
<rect x="266" y="140" width="58" height="66" fill="#13233a" stroke="#4fc3f7" stroke-width="1.5"/>
</g>
<path d="M60 360 L130 330 H400" fill="none" stroke="#8b95a3" stroke-width="2"/>
<circle cx="680" cy="90" r="34" fill="none" stroke="#ff8a3d" stroke-width="2"/>
<g stroke="#ff8a3d" stroke-width="2"><line x1="680" y1="90" x2="680" y2="40" transform="rotate(0 680 90) translate(0 -8)" stroke-dasharray="0 6 12 50"/>
<line x1="680" y1="90" x2="680" y2="40" transform="rotate(45 680 90) translate(0 -8)" stroke-dasharray="0 6 12 50"/>
<line x1="680" y1="90" x2="680" y2="40" transform="rotate(90 680 90) translate(0 -8)" stroke-dasharray="0 6 12 50"/>
<line x1="680" y1="90" x2="680" y2="40" transform="rotate(135 680 90) translate(0 -8)" stroke-dasharray="0 6 12 50"/>
<line x1="680" y1="90" x2="680" y2="40" transform="rotate(180 680 90) translate(0 -8)" stroke-dasharray="0 6 12 50"/>
<line x1="680" y1="90" x2="680" y2="40" transform="rotate(225 680 90) translate(0 -8)" stroke-dasharray="0 6 12 50"/>
<line x1="680" y1="90" x2="680" y2="40" transform="rotate(270 680 90) translate(0 -8)" stroke-dasharray="0 6 12 50"/>
<line x1="680" y1="90" x2="680" y2="40" transform="rotate(315 680 90) translate(0 -8)" stroke-dasharray="0 6 12 50"/></g>
<line x1="420" y1="420" x2="770" y2="420" stroke="#3a4350"/>
<rect x="430" y="380" width="22" height="40" fill="#ff8a3d" opacity=".85"/><rect x="458" y="365" width="22" height="55" fill="#ff8a3d" opacity=".85"/><rect x="486" y="340" width="22" height="80" fill="#ff8a3d" opacity=".85"/><rect x="514" y="310" width="22" height="110" fill="#ff8a3d" opacity=".85"/><rect x="542" y="280" width="22" height="140" fill="#ff8a3d" opacity=".85"/><rect x="570" y="260" width="22" height="160" fill="#ff8a3d" opacity=".85"/><rect x="598" y="255" width="22" height="165" fill="#ff8a3d" opacity=".85"/><rect x="626" y="270" width="22" height="150" fill="#ff8a3d" opacity=".85"/><rect x="654" y="300" width="22" height="120" fill="#ff8a3d" opacity=".85"/><rect x="682" y="330" width="22" height="90" fill="#ff8a3d" opacity=".85"/><rect x="710" y="360" width="22" height="60" fill="#ff8a3d" opacity=".85"/><rect x="738" y="375" width="22" height="45" fill="#ff8a3d" opacity=".85"/>
<g font-size="13" fill="#c4cad3"><text x="80" y="100">7.2 kW ARRAY</text><text x="430" y="200">MONTHLY GENERATION (illustrative)</text></g>
<g font-size="11" fill="#5b6574"><text x="432" y="440">J F M A M J J A S O N D</text></g>
<text x="24" y="476" font-size="12" fill="#5b6574">PLACEHOLDER — replace with project photo / render</text></svg>
